<svg width="44" height="30" viewBox="0 0 44 30" fill="none" xmlns="http://www.w3.org/2000/svg">
<path d="M22 9C20.4087 9 18.8826 9.63214 17.7574 10.7574C16.6321 11.8826 16 13.4087 16 15C16 16.5913 16.6321 18.1174 17.7574 19.2426C18.8826 20.3679 20.4087 21 22 21C23.5913 21 25.1174 20.3679 26.2426 19.2426C27.3679 18.1174 28 16.5913 28 15C28 13.4087 27.3679 11.8826 26.2426 10.7574C25.1174 9.63214 23.5913 9 22 9ZM22 25C19.3478 25 16.8043 23.9464 14.9289 22.0711C13.0536 20.1957 12 17.6522 12 15C12 12.3478 13.0536 9.8043 14.9289 7.92893C16.8043 6.05357 19.3478 5 22 5C24.6522 5 27.1957 6.05357 29.0711 7.92893C30.9464 9.8043 32 12.3478 32 15C32 17.6522 30.9464 20.1957 29.0711 22.0711C27.1957 23.9464 24.6522 25 22 25ZM22 0C12 0 3.46 6.22 0 15C3.46 23.78 12 30 22 30C32 30 40.54 23.78 44 15C40.54 6.22 32 0 22 0Z" fill="#567C86"/>
</svg>
