<svg width="35" height="36" viewBox="0 0 35 36" fill="none" xmlns="http://www.w3.org/2000/svg">
<path d="M3.50009 28.429H7.00018V35.5709L15.9272 28.429H24.5006C26.4309 28.429 28.0007 26.8592 28.0007 24.9289V10.9286C28.0007 8.99826 26.4309 7.42847 24.5006 7.42847H3.50009C1.56979 7.42847 0 8.99826 0 10.9286V24.9289C0 26.8592 1.56979 28.429 3.50009 28.429Z" fill="#567C86"/>
<path d="M31.4999 0.428955H10.4994C8.56906 0.428955 6.99927 1.99875 6.99927 3.92904H27.9998C29.9301 3.92904 31.4999 5.49884 31.4999 7.42913V21.4295C33.4302 21.4295 35 19.8597 35 17.9294V3.92904C35 1.99875 33.4302 0.428955 31.4999 0.428955Z" fill="#567C86"/>
</svg>
