<svg width="44" height="40" viewBox="0 0 44 40" fill="none" xmlns="http://www.w3.org/2000/svg">
<path d="M41.0918 31.2615L35.5516 28.0845C35.4606 28.0328 35.3602 27.9993 35.2561 27.9861C35.1521 27.9729 35.0465 27.9802 34.9452 28.0075C34.844 28.0348 34.7492 28.0817 34.6662 28.1454C34.5833 28.2091 34.5137 28.2884 34.4616 28.3788L33.4621 30.0994C33.2411 30.4785 33.3717 30.9672 33.7534 31.1867L39.2936 34.3637C39.3846 34.4154 39.485 34.4489 39.5891 34.4621C39.6931 34.4753 39.7988 34.468 39.9 34.4407C40.0012 34.4134 40.096 34.3665 40.179 34.3028C40.2619 34.2391 40.3315 34.1598 40.3836 34.0694L41.3831 32.3488C41.6041 31.9697 41.4685 31.481 41.0918 31.2615ZM34.4566 11.6211C34.5087 11.7115 34.5782 11.7908 34.6612 11.8545C34.7442 11.9182 34.839 11.9651 34.9402 11.9924C35.0414 12.0197 35.1471 12.027 35.2511 12.0138C35.3552 12.0006 35.4556 11.9671 35.5466 11.9154L41.0868 8.73839C41.4685 8.51894 41.5991 8.03018 41.3781 7.65113L40.3836 5.93547C40.3315 5.84508 40.2619 5.76576 40.179 5.70205C40.096 5.63835 40.0012 5.59149 39.9 5.56417C39.7988 5.53684 39.6931 5.52958 39.5891 5.5428C39.485 5.55602 39.3846 5.58946 39.2936 5.64121L33.7534 8.81819C33.57 8.92437 33.4364 9.09836 33.3818 9.30211C33.3272 9.50586 33.3561 9.72278 33.4621 9.90544L34.4566 11.6211ZM43.1963 18.2045H36.7671C36.3251 18.2045 35.9635 18.5636 35.9635 19.0025V20.9974C35.9635 21.4363 36.3251 21.7954 36.7671 21.7954H43.1963C43.6384 21.7954 44 21.4363 44 20.9974V19.0025C44 18.5636 43.6384 18.2045 43.1963 18.2045ZM27.721 0.199951C27.4247 0.199951 27.1233 0.27975 26.847 0.464284L9.0411 12.0201H0.803653C0.361644 12.0201 0 12.3792 0 12.8181V27.1818C0 27.6207 0.361644 27.9798 0.803653 27.9798H9.0411L26.847 39.5356C27.1233 39.7152 27.4297 39.7999 27.721 39.7999C28.5598 39.7999 29.3333 39.1366 29.3333 38.199V1.80091C29.3333 0.863276 28.5598 0.199951 27.721 0.199951Z" fill="#567C86"/>
</svg>
