<svg width="50" height="51" viewBox="0 0 50 51" fill="none" xmlns="http://www.w3.org/2000/svg">
<path d="M25 0.5C28.3152 0.5 31.4946 1.81696 33.8388 4.16116C36.183 6.50537 37.5 9.68479 37.5 13C37.5 16.3152 36.183 19.4946 33.8388 21.8388C31.4946 24.183 28.3152 25.5 25 25.5C21.6848 25.5 18.5054 24.183 16.1612 21.8388C13.817 19.4946 12.5 16.3152 12.5 13C12.5 9.68479 13.817 6.50537 16.1612 4.16116C18.5054 1.81696 21.6848 0.5 25 0.5ZM25 31.75C38.8125 31.75 50 37.3438 50 44.25V50.5H0V44.25C0 37.3438 11.1875 31.75 25 31.75Z" fill="#567C86"/>
</svg>
