<svg width="36" height="37" viewBox="0 0 36 37" fill="none" xmlns="http://www.w3.org/2000/svg">
<path d="M36 31.0657C36 33.8277 33.762 36.0657 31 36.0657H5C2.239 36.0657 0 33.8277 0 31.0657V5.0657C0 2.3037 2.239 0.0657043 5 0.0657043H31C33.762 0.0657043 36 2.3037 36 5.0657V31.0657Z" fill="#1976D2"/>
<path d="M29.937 12.1069C29.983 11.9559 30.005 11.8159 29.999 11.6909C29.984 11.3289 29.735 11.0659 29.149 11.0659H26.531C25.87 11.0659 25.565 11.4659 25.387 11.8669C25.387 11.8669 23.755 15.2259 21.874 17.4409C21.264 18.0819 20.954 18.0659 20.624 18.0659C20.447 18.0659 20 17.8519 20 17.2649V12.0799C20 11.3859 19.827 11.0659 19.268 11.0659H14.619C14.212 11.0659 14 11.3859 14 11.7069C14 12.3739 14.898 12.5339 15 14.4029V18.0259C15 18.9059 14.847 19.0659 14.517 19.0659C13.627 19.0659 11.875 16.0659 10.702 12.1339C10.448 11.3599 10.194 11.0659 9.533 11.0659H6.89C6.127 11.0659 6 11.4399 6 11.8399C6 12.5609 6.6 16.4589 9.875 20.9409C12.25 24.1909 15.379 26.0659 18.149 26.0659C19.827 26.0659 19.999 25.6389 19.999 24.9719V21.9999C20 21.1989 20.183 21.0659 20.717 21.0659C21.098 21.0659 21.875 21.3159 23.375 23.0659C25.105 25.0839 25.419 26.0659 26.411 26.0659H29.029C29.637 26.0659 29.986 25.8109 30 25.3159C30.003 25.1899 29.985 25.0489 29.944 24.8919C29.75 24.3159 28.86 22.9079 27.75 21.5659C27.135 20.8229 26.528 20.0869 26.249 19.6869C26.062 19.4259 25.991 19.2419 26 19.0659C26.009 18.8809 26.105 18.7049 26.249 18.4589C26.223 18.4589 29.607 13.7079 29.937 12.1069Z" fill="white"/>
</svg>
